{"glyphs":{" ":{"ha":694,"x_min":0,"x_max":0,"o":""},"A":{"ha":854,"x_min":0,"x_max":1093,"o":"m 526 0 l 785 0 l 1093 369 l 375 372 l 346 364 l 321 356 l 300 342 l 279 329 l 258 311 l 239 290 l 224 278 l 0 0 l 453 0 l 631 213 l 426 213 l 465 260 l 744 260 l 526 0 m 0 0 m 0 0 m 744 260 m 453 0 l 631 213 l 453 0 m 426 213 l 465 260 l 426 213 m 785 0 "},"B":{"ha":847,"x_min":-121,"x_max":1093,"o":"m 0 0 l 718 -3 l 746 6 l 772 15 l 793 28 l 814 40 l 835 58 l 854 79 l 869 92 l 1093 369 l 640 369 l 549 260 l 738 260 l 693 213 l 446 213 l 603 411 l 372 688 l 151 688 l 364 435 l 343 411 l 50 758 l -121 758 l 256 306 l 0 0 m 343 411 m 446 213 m -121 758 l 256 306 l -121 758 m 50 758 m 50 758 l 343 411 l 50 758 m 151 688 m 151 688 l 364 435 l 151 688 m 372 688 l 603 411 l 372 688 m 1093 369 m 1093 369 "},"C":{"ha":654,"x_min":46,"x_max":892,"o":"m 350 108 m 482 265 m 49 57 l 46 39 l 51 25 l 74 6 l 93 0 l 586 0 l 729 168 l 488 168 l 438 107 l 350 108 l 482 265 l 569 265 l 518 204 l 753 203 l 892 371 l 367 371 l 336 364 l 308 356 l 285 339 l 49 57 "},"D":{"ha":857,"x_min":47,"x_max":1379,"o":"m 1085 708 l 1379 708 l 788 0 l 72 0 l 60 8 l 51 22 l 47 36 l 49 53 l 58 76 l 307 369 l 749 369 l 647 257 l 464 257 l 425 210 l 672 210 l 1085 708 m 672 210 m 425 210 l 464 257 l 425 210 m 672 210 "},"E":{"ha":860,"x_min":46,"x_max":1060,"o":"m 93 0 l 718 -3 l 746 6 l 768 14 l 793 28 l 814 40 l 835 58 l 851 75 l 869 92 l 358 90 l 518 279 l 765 279 l 725 232 l 543 232 l 464 139 l 911 139 l 1015 261 l 1026 276 l 1039 294 l 1051 313 l 1057 324 l 1060 336 l 1060 354 l 1049 364 l 1033 371 l 367 371 l 336 364 l 308 356 l 285 339 l 49 57 l 46 39 l 51 25 l 74 6 l 93 0 m 765 279 l 725 232 l 765 279 m 464 139 m 911 139 m 911 139 m 464 139 m 464 139 l 543 232 l 464 139 "},"F":{"ha":524,"x_min":0,"x_max":1108,"o":"m 446 538 l 0 0 l 249 0 l 418 226 l 647 226 l 769 368 l 647 226 l 769 368 l 549 368 l 610 440 l 1026 439 l 1108 538 l 446 538 m 249 0 l 549 368 l 418 226 l 249 0 m 249 0 m 418 226 m 249 0 m 1026 439 m 549 368 l 610 440 l 549 368 m 1026 439 l 1108 538 l 1026 439 m 249 0 m 647 226 m 769 368 l 647 226 l 769 368 m 769 368 "},"G":{"ha":853,"x_min":-268,"x_max":1093,"o":"m 1093 369 l 572 -254 l -268 -256 l -249 -208 l -212 -162 l -171 -121 l -132 -90 l -74 -62 l -22 -44 l 44 -39 l 490 -40 l 744 260 l 465 260 l 426 213 l 631 213 l 453 0 l 0 0 l 208 261 l 224 278 l 239 290 l 258 311 l 279 329 l 300 342 l 321 356 l 346 364 l 375 372 l 1093 369 m 490 -40 m 0 0 m 0 0 m 490 -40 l 744 260 l 490 -40 m 453 0 l 631 213 l 453 0 m 426 213 l 465 260 l 426 213 "},"H":{"ha":769,"x_min":-121,"x_max":947,"o":"m 603 411 l 258 0 l 0 0 l 256 306 l -121 758 l 50 758 l 343 411 l 364 435 l 151 688 l 372 688 l 603 411 m 343 411 m -121 758 l 256 306 l -121 758 m 50 758 m 50 758 l 343 411 l 50 758 m 151 688 m 151 688 l 364 435 l 151 688 m 372 688 l 603 411 l 372 688 m 701 0 l 333 0 l 563 264 l 475 264 l 424 203 l 194 199 l 342 368 l 893 368 l 922 361 l 940 343 l 947 322 l 942 293 l 701 0 m 701 0 m 333 0 l 563 264 l 333 0 m 424 203 l 475 264 l 424 203 m 342 368 m 194 199 "},"I":{"ha":369,"x_min":0,"x_max":683,"o":"m 418 500 l 342 410 l 583 410 l 604 418 l 631 435 l 651 453 l 672 479 l 683 500 l 418 500 m 0 0 l 311 372 l 614 371 l 301 0 l 0 0 m 614 371 "},"J":{"ha":603,"x_min":-572,"x_max":893,"o":"m 628 500 l 551 410 l 793 410 l 814 418 l 840 435 l 861 453 l 882 479 l 893 500 l 628 500 m 188 226 l 308 369 l 824 371 l 307 -242 l -572 -242 l -553 -196 l -517 -150 l -475 -108 l -436 -78 l -378 -50 l -326 -32 l -260 -26 l 186 -28 l 400 225 l 188 226 m 308 369 m 824 371 "},"K":{"ha":872,"x_min":0,"x_max":1067,"o":"m 519 0 l 624 -126 l 672 -168 l 724 -192 l 765 -208 l 1011 -208 l 707 161 l 674 189 l 636 194 l 1067 711 l 874 711 l 461 219 l 419 219 l 658 501 l 206 501 l 128 411 l 350 411 l 0 0 l 519 0 m 0 0 l 350 411 l 0 0 m 128 411 l 206 501 l 128 411 m 419 219 m 658 501 m 636 194 l 1067 711 l 636 194 m 707 161 m 707 161 l 1011 -208 l 707 161 "},"L":{"ha":375,"x_min":0,"x_max":901,"o":"m 901 710 l 374 710 l 297 619 l 519 619 l 0 0 l 306 0 l 901 710 m 901 710 m 306 0 m 0 0 m 374 710 m 374 710 "},"M":{"ha":1214,"x_min":0,"x_max":1399,"o":"m 1008 368 l 701 0 l 443 0 l 747 368 l 1008 368 m 443 0 l 747 368 l 443 0 m 1014 265 l 572 265 l 350 0 l 0 0 l 244 294 l 285 324 l 326 344 l 374 363 l 415 369 l 1008 368 l 1344 369 l 1374 363 l 1392 344 l 1399 324 l 1393 294 l 1144 0 l 794 0 l 1014 265 m 1144 0 "},"N":{"ha":769,"x_min":0,"x_max":956,"o":"m 0 0 l 483 265 l 258 0 l 0 0 m 701 0 l 351 0 l 571 265 l 483 265 l 258 0 l 0 0 l 308 369 l 901 369 l 931 363 l 949 344 l 956 324 l 950 294 l 701 0 m 701 0 m 571 265 "},"O":{"ha":696,"x_min":76,"x_max":861,"o":"m 81 54 l 96 31 l 118 14 l 142 4 l 158 0 q 364 0 364 1 l 443 110 l 356 110 l 493 275 l 596 369 l 354 369 l 314 360 l 281 339 l 126 153 l 76 90 l 81 54 m 797 369 l 596 369 l 493 275 l 579 275 l 443 110 l 238 0 l 564 0 l 599 3 l 628 14 l 658 39 l 851 269 l 861 299 l 854 331 l 835 356 l 797 369 "},"P":{"ha":858,"x_min":-210,"x_max":1060,"o":"m 85 -242 l -210 -242 l 311 369 l 1033 371 l 1049 364 l 1060 354 l 1060 336 l 1057 324 l 790 -1 l 349 -1 l 526 213 l 710 213 l 750 260 l 503 260 l 85 -242 m 503 260 m 750 260 l 710 213 l 750 260 m 311 369 m 503 260 "},"Q":{"ha":849,"x_min":0,"x_max":1253,"o":"m 1093 369 l 375 372 l 346 364 l 321 356 l 300 342 l 279 329 l 258 311 l 239 290 l 224 278 l 0 0 l 453 0 l 631 213 l 426 213 l 465 260 l 744 260 l 433 -106 l 739 -474 l 958 -474 l 674 -129 l 694 -106 l 1082 -571 l 1253 -571 l 781 0 l 1093 369 m 694 -106 m 1253 -571 l 781 0 l 1253 -571 m 1082 -571 m 1082 -571 l 694 -106 l 1082 -571 m 958 -474 m 958 -474 l 674 -129 l 958 -474 m 739 -474 l 433 -106 l 739 -474 m 0 0 m 0 0 m 433 -106 l 744 260 l 433 -106 m 453 0 l 631 213 l 453 0 m 426 213 l 465 260 l 426 213 m 781 0 "},"R":{"ha":646,"x_min":0,"x_max":892,"o":"m 0 0 l 275 3 l 492 264 l 579 264 l 528 204 l 753 203 l 892 371 l 367 371 l 336 364 l 308 351 l 264 314 l 0 0 m 0 0 l 264 314 l 0 0 m 275 3 l 492 264 l 275 3 m 528 204 l 579 264 l 528 204 m 892 371 m 753 203 "},"S":{"ha":865,"x_min":19,"x_max":1081,"o":"m 1017 276 l 740 275 l 493 275 l 454 228 l 636 228 l 557 135 l 110 135 l 213 257 l 228 272 l 246 290 l 264 308 l 278 319 l 296 332 l 328 350 l 354 358 l 382 367 l 1047 367 l 1067 360 l 1081 351 l 1076 335 l 1017 276 m 493 275 l 454 228 l 493 275 m 557 135 m 110 135 m 110 135 m 557 135 m 557 135 l 636 228 l 557 135 m 81 90 l 358 92 l 606 92 l 646 138 l 464 138 l 543 231 l 990 231 l 888 110 l 872 93 l 854 76 l 836 58 l 822 47 l 804 35 l 772 17 l 746 7 l 718 0 l 53 0 l 32 6 l 19 15 l 24 32 l 81 90 m 606 92 l 646 138 l 606 92 m 543 231 m 990 231 m 990 231 m 543 231 m 543 231 l 464 138 l 543 231 m 888 110 "},"T":{"ha":799,"x_min":194,"x_max":1042,"o":"m 219 0 m 219 0 l 514 0 l 700 222 l 407 224 l 219 0 m 219 0 m 194 226 m 1042 368 l 315 368 l 194 226 l 700 222 l 921 225 l 1042 368 m 315 368 m 829 369 m 921 225 m 514 0 m 921 225 "},"U":{"ha":774,"x_min":60,"x_max":1015,"o":"m 1015 369 l 532 104 l 757 369 l 1015 369 m 314 369 l 664 369 l 444 104 l 532 104 l 757 369 l 1015 369 l 707 0 l 114 0 l 85 7 l 67 25 l 60 46 l 65 75 l 314 369 m 314 369 m 444 104 "},"V":{"ha":754,"x_min":197,"x_max":996,"o":"m 685 0 l 393 0 l 197 236 l 307 369 l 628 368 l 479 189 l 529 129 l 732 368 l 996 368 l 685 0 m 685 0 l 996 368 l 685 0 "},"W":{"ha":1217,"x_min":54,"x_max":1453,"o":"m 444 0 l 751 368 l 1010 368 l 706 0 l 444 0 m 1010 368 l 706 0 l 1010 368 m 439 103 l 881 103 l 1103 368 l 1453 368 l 1208 74 l 1167 35 l 1129 11 l 1096 -1 l 444 0 l 108 -1 l 79 6 l 61 24 l 54 44 l 60 74 l 308 368 l 658 368 l 439 103 m 308 368 m 1453 368 m 1453 368 "},"X":{"ha":815,"x_min":0,"x_max":1024,"o":"m 519 0 l 624 -126 l 672 -168 l 724 -192 l 765 -208 l 963 -210 l 664 161 l 631 189 l 593 194 l 1024 711 l 831 711 l 493 315 l 338 499 l 113 499 l 265 314 l 0 0 l 519 0 m 0 0 l 265 314 l 0 0 m 493 315 m 593 194 l 1024 711 l 593 194 m 664 161 m 664 161 l 963 -210 l 664 161 m 519 0 l 265 314 l 519 0 "},"Y":{"ha":538,"x_min":-604,"x_max":894,"o":"m 894 500 l 254 -256 l -604 -256 l -292 -40 l 239 -42 l 278 0 l 0 0 l 350 411 l 128 411 l 203 500 l 642 500 l 408 218 l 461 219 l 694 500 l 894 500 m -604 -256 l -292 -40 l -358 -46 l -410 -64 l -468 -92 l -507 -122 l -549 -164 l -585 -210 l -604 -256 m 469 0 "},"Z":{"ha":682,"x_min":0,"x_max":810,"o":"m 747 183 l 525 183 l 810 501 l 206 501 l 128 411 l 350 411 l 0 0 l 614 0 l 747 183 m 614 0 m 0 0 m 747 183 m 0 0 l 350 411 l 0 0 m 128 411 l 206 501 l 128 411 m 810 501 m 525 183 m 614 0 "},"a":{"ha":854,"x_min":0,"x_max":1093,"o":"m 526 0 l 785 0 l 1093 369 l 375 372 l 346 364 l 321 356 l 300 342 l 279 329 l 258 311 l 239 290 l 224 278 l 0 0 l 453 0 l 631 213 l 426 213 l 465 260 l 744 260 l 526 0 m 0 0 m 0 0 m 744 260 m 453 0 l 631 213 l 453 0 m 426 213 l 465 260 l 426 213 m 785 0 "},"b":{"ha":847,"x_min":-121,"x_max":1093,"o":"m 0 0 l 718 -3 l 746 6 l 772 15 l 793 28 l 814 40 l 835 58 l 854 79 l 869 92 l 1093 369 l 640 369 l 549 260 l 738 260 l 693 213 l 446 213 l 603 411 l 372 688 l 151 688 l 364 435 l 343 411 l 50 758 l -121 758 l 256 306 l 0 0 m 343 411 m 446 213 m -121 758 l 256 306 l -121 758 m 50 758 m 50 758 l 343 411 l 50 758 m 151 688 m 151 688 l 364 435 l 151 688 m 372 688 l 603 411 l 372 688 m 1093 369 m 1093 369 "},"c":{"ha":654,"x_min":46,"x_max":892,"o":"m 350 108 m 482 265 m 49 57 l 46 39 l 51 25 l 74 6 l 93 0 l 586 0 l 729 168 l 488 168 l 438 107 l 350 108 l 482 265 l 569 265 l 518 204 l 753 203 l 892 371 l 367 371 l 336 364 l 308 356 l 285 339 l 49 57 "},"d":{"ha":857,"x_min":47,"x_max":1379,"o":"m 1085 708 l 1379 708 l 788 0 l 72 0 l 60 8 l 51 22 l 47 36 l 49 53 l 58 76 l 307 369 l 749 369 l 647 257 l 464 257 l 425 210 l 672 210 l 1085 708 m 672 210 m 425 210 l 464 257 l 425 210 m 672 210 "},"e":{"ha":860,"x_min":46,"x_max":1060,"o":"m 93 0 l 718 -3 l 746 6 l 768 14 l 793 28 l 814 40 l 835 58 l 851 75 l 869 92 l 358 90 l 518 279 l 765 279 l 725 232 l 543 232 l 464 139 l 911 139 l 1015 261 l 1026 276 l 1039 294 l 1051 313 l 1057 324 l 1060 336 l 1060 354 l 1049 364 l 1033 371 l 367 371 l 336 364 l 308 356 l 285 339 l 49 57 l 46 39 l 51 25 l 74 6 l 93 0 m 765 279 l 725 232 l 765 279 m 464 139 m 911 139 m 911 139 m 464 139 m 464 139 l 543 232 l 464 139 "},"f":{"ha":524,"x_min":0,"x_max":1108,"o":"m 446 538 l 0 0 l 249 0 l 418 226 l 647 226 l 769 368 l 647 226 l 769 368 l 549 368 l 610 440 l 1026 439 l 1108 538 l 446 538 m 249 0 l 549 368 l 418 226 l 249 0 m 249 0 m 418 226 m 249 0 m 1026 439 m 549 368 l 610 440 l 549 368 m 1026 439 l 1108 538 l 1026 439 m 249 0 m 647 226 m 769 368 l 647 226 l 769 368 m 769 368 "},"g":{"ha":853,"x_min":-268,"x_max":1093,"o":"m 1093 369 l 572 -254 l -268 -256 l -249 -208 l -212 -162 l -171 -121 l -132 -90 l -74 -62 l -22 -44 l 44 -39 l 490 -40 l 744 260 l 465 260 l 426 213 l 631 213 l 453 0 l 0 0 l 208 261 l 224 278 l 239 290 l 258 311 l 279 329 l 300 342 l 321 356 l 346 364 l 375 372 l 1093 369 m 490 -40 m 0 0 m 0 0 m 490 -40 l 744 260 l 490 -40 m 453 0 l 631 213 l 453 0 m 426 213 l 465 260 l 426 213 "},"h":{"ha":769,"x_min":-121,"x_max":947,"o":"m 603 411 l 258 0 l 0 0 l 256 306 l -121 758 l 50 758 l 343 411 l 364 435 l 151 688 l 372 688 l 603 411 m 343 411 m -121 758 l 256 306 l -121 758 m 50 758 m 50 758 l 343 411 l 50 758 m 151 688 m 151 688 l 364 435 l 151 688 m 372 688 l 603 411 l 372 688 m 701 0 l 333 0 l 563 264 l 475 264 l 424 203 l 194 199 l 342 368 l 893 368 l 922 361 l 940 343 l 947 322 l 942 293 l 701 0 m 701 0 m 333 0 l 563 264 l 333 0 m 424 203 l 475 264 l 424 203 m 342 368 m 194 199 "},"i":{"ha":369,"x_min":0,"x_max":683,"o":"m 418 500 l 342 410 l 583 410 l 604 418 l 631 435 l 651 453 l 672 479 l 683 500 l 418 500 m 0 0 l 311 372 l 614 371 l 301 0 l 0 0 m 614 371 "},"j":{"ha":603,"x_min":-572,"x_max":893,"o":"m 628 500 l 551 410 l 793 410 l 814 418 l 840 435 l 861 453 l 882 479 l 893 500 l 628 500 m 188 226 l 308 369 l 824 371 l 307 -242 l -572 -242 l -553 -196 l -517 -150 l -475 -108 l -436 -78 l -378 -50 l -326 -32 l -260 -26 l 186 -28 l 400 225 l 188 226 m 308 369 m 824 371 "},"k":{"ha":872,"x_min":0,"x_max":1067,"o":"m 519 0 l 624 -126 l 672 -168 l 724 -192 l 765 -208 l 1011 -208 l 707 161 l 674 189 l 636 194 l 1067 711 l 874 711 l 461 219 l 419 219 l 658 501 l 206 501 l 128 411 l 350 411 l 0 0 l 519 0 m 0 0 l 350 411 l 0 0 m 128 411 l 206 501 l 128 411 m 419 219 m 658 501 m 636 194 l 1067 711 l 636 194 m 707 161 m 707 161 l 1011 -208 l 707 161 "},"l":{"ha":375,"x_min":0,"x_max":901,"o":"m 901 710 l 374 710 l 297 619 l 519 619 l 0 0 l 306 0 l 901 710 m 901 710 m 306 0 m 0 0 m 374 710 m 374 710 "},"m":{"ha":1214,"x_min":0,"x_max":1399,"o":"m 1008 368 l 701 0 l 443 0 l 747 368 l 1008 368 m 443 0 l 747 368 l 443 0 m 1014 265 l 572 265 l 350 0 l 0 0 l 244 294 l 285 324 l 326 344 l 374 363 l 415 369 l 1008 368 l 1344 369 l 1374 363 l 1392 344 l 1399 324 l 1393 294 l 1144 0 l 794 0 l 1014 265 m 1144 0 "},"n":{"ha":769,"x_min":0,"x_max":956,"o":"m 0 0 l 483 265 l 258 0 l 0 0 m 701 0 l 351 0 l 571 265 l 483 265 l 258 0 l 0 0 l 308 369 l 901 369 l 931 363 l 949 344 l 956 324 l 950 294 l 701 0 m 701 0 m 571 265 "},"o":{"ha":696,"x_min":76,"x_max":861,"o":"m 81 54 l 96 31 l 118 14 l 142 4 l 158 0 q 364 0 364 1 l 443 110 l 356 110 l 493 275 l 596 369 l 354 369 l 314 360 l 281 339 l 126 153 l 76 90 l 81 54 m 797 369 l 596 369 l 493 275 l 579 275 l 443 110 l 238 0 l 564 0 l 599 3 l 628 14 l 658 39 l 851 269 l 861 299 l 854 331 l 835 356 l 797 369 "},"p":{"ha":858,"x_min":-210,"x_max":1060,"o":"m 85 -242 l -210 -242 l 311 369 l 1033 371 l 1049 364 l 1060 354 l 1060 336 l 1057 324 l 790 -1 l 349 -1 l 526 213 l 710 213 l 750 260 l 503 260 l 85 -242 m 503 260 m 750 260 l 710 213 l 750 260 m 311 369 m 503 260 "},"q":{"ha":849,"x_min":0,"x_max":1253,"o":"m 1093 369 l 375 372 l 346 364 l 321 356 l 300 342 l 279 329 l 258 311 l 239 290 l 224 278 l 0 0 l 453 0 l 631 213 l 426 213 l 465 260 l 744 260 l 433 -106 l 739 -474 l 958 -474 l 674 -129 l 694 -106 l 1082 -571 l 1253 -571 l 781 0 l 1093 369 m 694 -106 m 1253 -571 l 781 0 l 1253 -571 m 1082 -571 m 1082 -571 l 694 -106 l 1082 -571 m 958 -474 m 958 -474 l 674 -129 l 958 -474 m 739 -474 l 433 -106 l 739 -474 m 0 0 m 0 0 m 433 -106 l 744 260 l 433 -106 m 453 0 l 631 213 l 453 0 m 426 213 l 465 260 l 426 213 m 781 0 "},"r":{"ha":646,"x_min":0,"x_max":892,"o":"m 0 0 l 275 3 l 492 264 l 579 264 l 528 204 l 753 203 l 892 371 l 367 371 l 336 364 l 308 351 l 264 314 l 0 0 m 0 0 l 264 314 l 0 0 m 275 3 l 492 264 l 275 3 m 528 204 l 579 264 l 528 204 m 892 371 m 753 203 "},"s":{"ha":865,"x_min":19,"x_max":1081,"o":"m 1017 276 l 740 275 l 493 275 l 454 228 l 636 228 l 557 135 l 110 135 l 213 257 l 228 272 l 246 290 l 264 308 l 278 319 l 296 332 l 328 350 l 354 358 l 382 367 l 1047 367 l 1067 360 l 1081 351 l 1076 335 l 1017 276 m 493 275 l 454 228 l 493 275 m 557 135 m 110 135 m 110 135 m 557 135 m 557 135 l 636 228 l 557 135 m 81 90 l 358 92 l 606 92 l 646 138 l 464 138 l 543 231 l 990 231 l 888 110 l 872 93 l 854 76 l 836 58 l 822 47 l 804 35 l 772 17 l 746 7 l 718 0 l 53 0 l 32 6 l 19 15 l 24 32 l 81 90 m 606 92 l 646 138 l 606 92 m 543 231 m 990 231 m 990 231 m 543 231 m 543 231 l 464 138 l 543 231 m 888 110 "},"t":{"ha":799,"x_min":194,"x_max":1042,"o":"m 219 0 m 219 0 l 514 0 l 700 222 l 407 224 l 219 0 m 219 0 m 194 226 m 1042 368 l 315 368 l 194 226 l 700 222 l 921 225 l 1042 368 m 315 368 m 829 369 m 921 225 m 514 0 m 921 225 "},"u":{"ha":774,"x_min":60,"x_max":1015,"o":"m 1015 369 l 532 104 l 757 369 l 1015 369 m 314 369 l 664 369 l 444 104 l 532 104 l 757 369 l 1015 369 l 707 0 l 114 0 l 85 7 l 67 25 l 60 46 l 65 75 l 314 369 m 314 369 m 444 104 "},"v":{"ha":754,"x_min":197,"x_max":996,"o":"m 685 0 l 393 0 l 197 236 l 307 369 l 628 368 l 479 189 l 529 129 l 732 368 l 996 368 l 685 0 m 685 0 l 996 368 l 685 0 "},"w":{"ha":1217,"x_min":54,"x_max":1453,"o":"m 444 0 l 751 368 l 1010 368 l 706 0 l 444 0 m 1010 368 l 706 0 l 1010 368 m 439 103 l 881 103 l 1103 368 l 1453 368 l 1208 74 l 1167 35 l 1129 11 l 1096 -1 l 444 0 l 108 -1 l 79 6 l 61 24 l 54 44 l 60 74 l 308 368 l 658 368 l 439 103 m 308 368 m 1453 368 m 1453 368 "},"x":{"ha":815,"x_min":0,"x_max":1024,"o":"m 519 0 l 624 -126 l 672 -168 l 724 -192 l 765 -208 l 963 -210 l 664 161 l 631 189 l 593 194 l 1024 711 l 831 711 l 493 315 l 338 499 l 113 499 l 265 314 l 0 0 l 519 0 m 0 0 l 265 314 l 0 0 m 493 315 m 593 194 l 1024 711 l 593 194 m 664 161 m 664 161 l 963 -210 l 664 161 m 519 0 l 265 314 l 519 0 "},"y":{"ha":538,"x_min":-604,"x_max":894,"o":"m 894 500 l 254 -256 l -604 -256 l -292 -40 l 239 -42 l 278 0 l 0 0 l 350 411 l 128 411 l 203 500 l 642 500 l 408 218 l 461 219 l 694 500 l 894 500 m -604 -256 l -292 -40 l -358 -46 l -410 -64 l -468 -92 l -507 -122 l -549 -164 l -585 -210 l -604 -256 m 469 0 "},"z":{"ha":682,"x_min":0,"x_max":810,"o":"m 747 183 l 525 183 l 810 501 l 206 501 l 128 411 l 350 411 l 0 0 l 614 0 l 747 183 m 614 0 m 0 0 m 747 183 m 0 0 l 350 411 l 0 0 m 128 411 l 206 501 l 128 411 m 810 501 m 525 183 m 614 0 "},"ร":{"ha":696,"x_min":76,"x_max":1038,"o":"m 81 54 l 96 31 l 118 14 l 142 4 l 158 0 q 364 0 364 1 l 443 110 l 356 110 l 493 275 l 596 369 l 354 369 l 314 360 l 281 339 l 126 153 l 76 90 l 81 54 m 797 369 l 596 369 l 493 275 l 579 275 l 443 110 l 238 0 l 564 0 l 599 3 l 628 14 l 658 39 l 851 269 l 861 299 l 854 331 l 835 356 l 797 369 m 417 500 l 340 410 l 582 410 l 603 418 l 629 435 l 650 453 l 671 479 l 682 500 l 417 500 m 772 500 l 696 410 l 938 410 l 958 418 l 985 435 l 1006 453 l 1026 479 l 1038 500 l 772 500 "},"รถ":{"ha":696,"x_min":76,"x_max":1038,"o":"m 81 54 l 96 31 l 118 14 l 142 4 l 158 0 q 364 0 364 1 l 443 110 l 356 110 l 493 275 l 596 369 l 354 369 l 314 360 l 281 339 l 126 153 l 76 90 l 81 54 m 797 369 l 596 369 l 493 275 l 579 275 l 443 110 l 238 0 l 564 0 l 599 3 l 628 14 l 658 39 l 851 269 l 861 299 l 854 331 l 835 356 l 797 369 m 417 500 l 340 410 l 582 410 l 603 418 l 629 435 l 650 453 l 671 479 l 682 500 l 417 500 m 772 500 l 696 410 l 938 410 l 958 418 l 985 435 l 1006 453 l 1026 479 l 1038 500 l 772 500 "}}}
